<?xml version="1.0" encoding="utf-8"?>
<!-- Generator: Adobe Illustrator 21.1.0, SVG Export Plug-In . SVG Version: 6.00 Build 0)  -->
<svg version="1.1" id="Layer_1" xmlns="http://www.w3.org/2000/svg" xmlns:xlink="http://www.w3.org/1999/xlink" x="0px" y="0px"
	 viewBox="0 0 976 284" style="enable-background:new 0 0 976 284;" xml:space="preserve">
<style type="text/css">
	.st0{fill:#FF0000;}
	.st1{fill:#989898;}
</style>
<g>
	<polygon class="st0" points="13,3.2 212,3.2 183,46 93.9,45.9 107,67.8 51.4,67.4 	"/>
	<polygon class="st1" points="55.8,78.7 110.3,78.7 135,116 105.8,158.5 	"/>
</g>
<path d="M135.4,208.7c0.5-3,0.6-0.8,5.7-0.8c0.6,7.2-2.7,13.4-5.8,19.9c2,2.8,4.1,5.7,6.2,8.7c-4.9,2.4-7.7,0-10.1-3.8
	c-5.8,3.4-11.4,7.4-18.2,4.8c-3-1.1-6.2-3-8.2-5.4c-5.6-7-3.5-15.8,5.8-26.3c-0.9-2.2-2.1-4.5-2.9-6.9c-1.7-5.2-1.5-10.2,2.2-14.7
	c3.7-4.4,10-5.6,14.7-2.9c4.6,2.7,7.2,8.9,4.6,14.2c-2.1,4.3-5.6,7.8-9.2,12.7c3.3,4.5,7,9.5,10.9,14.8c3.3-4,3.5-8.1,4.2-12.1
	 M127.9,228.2c-4.8-6.1-9.2-11.8-13.7-17.7c-6.4,7.5-7.1,15.3-2.5,20C115.7,234.6,121.5,234,127.9,228.2z M117.2,202.7
	c4.8-2.7,7.5-6.5,7.1-12c-0.2-3-1.5-5.6-5-5.9c-3.5-0.3-5.2,2.2-5.7,5.1C112.9,194.6,113.4,199.1,117.2,202.7z"/>
<path d="M605.1,228.6c0-12.8,0-24.1,0-35.9c1.4-0.1,2.7-0.1,4.3-0.2c0,15.3,0,30.1,0,45.1c-3.5,1.8-5.2,0.3-6.6-3
	c-3.7-9.1-7.7-18.1-11.5-27.2c-0.6-1.3-1.2-2.6-2.4-3.7c0,11.3,0,22.6,0,34.2c-1.6,0-2.9,0-4.6,0c0-15,0-29.9,0-44.7
	c4.6-1.2,4.7-1.3,6.5,2.7c3.8,8.8,7.6,17.7,11.4,26.6C603,224.1,603.8,225.8,605.1,228.6z"/>
<path d="M803.7,216.2c7.6,5.7,5.9,14.3,8.8,21.8c-2.1,0-3.7,0-5.7,0c-1-4.3-1.8-8.6-2.9-12.8c-1.4-5.6-3.2-6.7-10.1-6.8
	c0,6.4,0,12.8,0,19.5c-2,0.1-3.4,0.2-5.5,0.4c-0.7-15.1-0.2-29.8-0.4-44.8c5.6-2.3,11-2.1,16.1-0.2c7.6,2.8,9.6,13.4,3.8,19.4
	C806.8,213.9,805.4,214.8,803.7,216.2z M794,213.9c8.4,0.1,11.8-3.1,11.3-10.1c-0.4-6-3.6-8.1-11.3-6.9
	C794,202.4,794,207.9,794,213.9z"/>
<path d="M390.5,218.6c0,6.7,0,12.9,0,19.4c-1.9,0-3.3,0-5,0c0-14.9,0-29.7,0-44.9c4.2-1.3,8.5-1.4,12.9-0.6c4.8,0.8,8.3,3.3,9.4,8.1
	c1.2,5,0.4,9.6-3.7,13.2c-0.9,0.8-2,1.4-3.3,2.3c7.6,5.4,6,14.2,9,21.9c-2.3,0-3.9,0-5.9,0c-0.9-4.2-1.6-8.3-2.6-12.4
	C399.8,219.7,397.6,218.3,390.5,218.6z M391,213.8c8.2,0.2,12.2-3.5,11.6-10c-0.5-5.9-4-8.1-11.6-6.9C391,202.4,391,207.9,391,213.8
	z"/>
<path d="M307.3,237.9c-2,0.1-3.3,0.2-5.1,0.3c-1.3-4.5-2.5-8.9-3.8-13.5c-3.7,0-7.2,0-11.1,0c-1.2,4.3-2.4,8.7-3.6,13.3
	c-1.5,0-2.9,0-5.1,0c3.8-15.4,7.5-30.3,11.3-45.5c2.1,0,3.9,0,6.3,0C299.9,207.5,303.6,222.5,307.3,237.9z M293.3,200.2
	c-0.3,0-0.7,0.1-1,0.1c-1.4,6.5-2.8,13.1-4.2,19.7c3.6,0,6.3,0,9.6,0C296.2,213,294.8,206.6,293.3,200.2z"/>
<path d="M190,220c0,5.7,0,11.5,0,17.6c-1.8,0.3-3.2,0.5-5.4,0.8c-0.3-15.3-0.1-30.2-0.1-45c12-3.5,21-0.1,22.8,8.2
	C209.4,211.8,204,217.7,190,220z M190.2,215c8.4,0.1,12.4-3.7,11.8-10.6c-0.5-6.2-4-8.6-11.8-7.6C190.2,202.7,190.2,208.7,190.2,215
	z"/>
<path d="M707.5,216.5c-3.8,0-7.3,0-11.3,0c0,5.8,0,11.1,0,17.1c3.8,0.1,7.5,0.2,11.2,0.4c2.2,0.1,2.2,0.3,2.7,3.9
	c-6.4,0-12.8,0-19.5,0c0-15.2,0-30.1,0-45.7c5.6,0,10.8-0.1,15.9,0c2,0,2,0.3,2.5,4.3c-4.2,0-8.3,0-12.8,0c0,5.2,0,9.9,0,15.5
	c3.3,0,6.4-0.1,9.4,0C708.2,212.1,708.8,213.5,707.5,216.5z"/>
<path d="M908.5,193.5c-0.5,1.4-0.9,2.3-1.3,3.4c-2-0.2-3.8-0.5-5.7-0.6c-3.2-0.1-5.7,1.1-7,4.2c-1.2,3.1-0.6,5.9,1.7,8
	c2.1,2,4.7,3.5,7,5.3c3.2,2.5,5.9,5.3,6.6,9.5c1.5,8.8-5.1,15.8-14.6,15.3c-1.9-0.1-3.8-0.5-5.5-1.1c-2.1-0.8-2-2.4-0.7-4.4
	c1.6,0.3,3.4,0.7,5.2,1c4.5,0.6,8-1.1,9.5-4.5c1.6-3.5,0.8-7.1-2.5-10.2c-2-1.9-4.3-3.4-6.4-5.1c-6.3-5.1-8.1-10.2-5.4-15.7
	c2.7-5.7,9.3-8.2,16.7-6.2C906.8,192.7,907.3,193,908.5,193.5z"/>
<path d="M492.3,196.9c-3.7-0.2-6.1-0.3-8.9-0.4c-0.5-2.1-0.9-4.1,1.9-4.2c6.5-0.2,13-0.1,19.5,0c2.3,0.1,2.4,1.8,1.6,4
	c-2.6,0.2-5.2,0.4-8.6,0.7c0,13.6,0,27.1,0,40.9c-2.1,0-3.4,0-5.6,0C492.3,224.4,492.3,210.9,492.3,196.9z"/>
<path d="M116.4,158.3c0.7-1.5,106.2-155,109.7-154.9 M222.1,3.4c0,0,17.1,0.1,23.5,0.1c1.5,4.6-14.8,147.5-16.2,154.8
	c-7.3,0-14.2,0-21.9,0c1.6-15.3,3.2-30.4,4.8-45.9c-14.8,0-28.9,0-43.4,0c-10.4,15.2-31.2,45.9-31.2,45.9h-21.2 M225.3,25
	c-11.5,15.1-45.4,69.5-45.9,72.7c11.9,0,23.7,0,35.4,0C218.4,72.9,221.9,48.9,225.3,25z"/>
<path d="M645.9,95.2c-8.5,21.5-16.7,42.4-24.9,63.1c-7.7,0-14.9,0-22.8,0c20-51,39.9-101.5,59.8-152.3c17.8-3.1,35.5-4.3,53.3-1.3
	c3.6,0.6,7.1,1.8,10.4,3.2c9.2,3.9,14.5,10.5,15,19.3c0.3,4.5-0.2,9.2-1.4,13.7c-8.2,30.6-39.4,52.8-76,54.4
	C655.1,95.3,650.8,95.2,645.9,95.2z M651.9,79.8c2,0.4,3.2,0.8,4.4,0.8c29.6,2.1,57.5-20.7,56.9-46.3c-0.2-8.7-5.5-14.6-15.5-15.9
	c-6-0.8-12.2-0.2-18.4-0.3c-2.4,0-3.7,1-4.4,3c-1.6,4.4-3.4,8.7-5.1,13.1C663.9,49.3,658,64.3,651.9,79.8z"/>
<path d="M804.5,142.7c-2.3,5.8-4.2,10.6-6.1,15.6c-26.1,0-52,0-77.9,0c0.1-3.8,54.6-144.2,60-154.5c24.6,0,49.5,0,75,0
	c-2,5.2-4,10.2-6,15.4c-17.6,0-34.8,0-52.7,0c-6.5,16.6-13,33.1-19.7,50c5.7,1.6,11,0.6,16.2,0.8c5.3,0.2,10.7,0,16.1,0
	c5.3,0,10.6,0,16.8,0c-2.1,5.3-3.9,9.9-5.9,15c-16.5,0-32.9,0-49.5,0c-7.6,19.3-15,38.2-22.7,57.7
	C767.1,142.7,785.2,142.7,804.5,142.7z"/>
<path d="M480,153.5c4-5.5,7.4-10.2,11-15.2c1.7,0.7,3.1,1.3,4.6,1.8c18.6,6.3,36.2,5.9,52.1-5.7c6.9-5.1,11.4-11.6,13.6-19.2
	c2.1-7.2,0.9-14.2-4.8-20.1c-3.9-4.1-8.6-7.6-12.8-11.5c-4.5-4.1-9.3-8.1-12.9-12.8c-6.9-8.7-8.4-18.4-3.9-28.4
	c9.6-21.7,28.3-34.2,54.3-39c10.2-1.9,20.5-1.8,30.5,0.9c2.9,0.8,5.6,2,9.1,3.3c-4.1,5.4-7.8,10.2-11.6,15.3
	c-1.6-0.6-2.9-1.1-4.2-1.6c-24.7-9.8-52.8,3.5-56.3,25c-0.9,5.7,0.7,10.6,5.1,14.7c4,3.8,8.6,7.1,12.9,10.7c2.5,2.1,5.3,4,7.7,6.2
	c11.7,10.6,15.2,23,9.9,36.8c-9.2,24.2-29.3,38.3-57.7,43.8c-11.8,2.3-23.8,1.9-35.4-1C487.5,156.5,484.1,154.9,480,153.5z"/>
<path d="M976,5.8c-4.2,5.7-7.6,10.4-10.9,14.9c-5-0.9-9.4-2-13.8-2.4c-12.5-1.1-23.5,2.3-33.6,8.4c-9.8,5.9-17.7,13.3-23.9,21.9
	c-14.6,20.1-24.3,41.8-26,65.6c-0.3,4.5,0.4,9.2,1.8,13.6c3,9.8,11.7,15.4,23.4,16c7.2,0.4,14.4,0,21.4-1.8c1.3-0.3,2.7-0.5,4.8-0.8
	c-0.7,4.6-1.1,8.8-2,12.9c-0.2,1-2,2.2-3.3,2.6c-15.5,4-31.2,4.9-46.7,0.4c-13.5-4-20.7-12.9-23.5-24.6c-2.3-9.9-1.3-19.8,1.2-29.5
	c6-24.2,16.6-46.7,34.6-66.2c13.6-14.7,30.3-25.9,51.6-31.5c11.6-3.1,23.4-3.8,35.4-1.8C969.2,3.8,972,4.7,976,5.8z"/>
<path d="M260.2,158.3C280.6,106.4,300.7,55.2,321,3.7c7.4,0,14.5,0,22.6,0c-8.8,23.4-18.1,46.4-27.1,69.4
	c-9,23.1-18.1,46.2-27.5,70.2c9.9,0.1,18.9,0.1,27.8,0.1c9,0,18,0,27.8,0c-2.1,5.5-3.9,10.1-5.8,14.9
	C312.7,158.3,287,158.3,260.2,158.3z"/>
<path d="M430.8,3.6c7.7,0,14.7,0,22.6,0c-8.9,23.5-18.2,46.5-27.2,69.5c-9,23.1-18.1,46.2-27.5,70.2c18.8,0.2,36.8,0,55.6,0.2
	c-2,5.2-3.9,9.8-5.8,14.7c-26,0-51.8,0-78.5,0C390.3,106.6,410.5,55.3,430.8,3.6z"/>
</svg>
