<?xml version="1.0" encoding="utf-8"?>
<!-- Generator: Adobe Illustrator 21.1.0, SVG Export Plug-In . SVG Version: 6.00 Build 0)  -->
<svg version="1.1" id="Layer_1" xmlns="http://www.w3.org/2000/svg" xmlns:xlink="http://www.w3.org/1999/xlink" x="0px" y="0px"
	 viewBox="0 0 1198 316" style="enable-background:new 0 0 1198 316;" xml:space="preserve">
<style type="text/css">
	.st0{fill:#FF0000;}
	.st1{fill:#DDDDDD;}
</style>
<polygon points="368,316 0.6,316.2 0.1,315.5 0,315.1 54,236 219.3,235.3 198.8,196.7 298.3,196.1 "/>
<polygon class="st0" points="207,-1 573,0 519,81 358,81 375.6,125 278,125 "/>
<polygon points="193.1,-0.2 289.8,174.2 185,174.5 139.1,91.3 193.1,-0.2 "/>
<polygon class="st0" points="382.6,315.9 289.4,147 385,146 431,236 382.6,315.9 "/>
<polygon class="st1" points="99.9,46.1 169.7,173.9 26.6,174.4 99.9,46.1 "/>
<polygon class="st0" points="398.5,147.1 552.4,146 466,281 398.5,147.1 "/>
<polygon class="st1" points="199,226 0.4,225.9 18,196 182.7,196.1 "/>
<polygon class="st0" points="585.6,88.5 561,125 391,125 375.8,87.3 "/>
<path d="M535.2,288.7c3,4.1,6.3,8.6,9.9,13.4c3-3.6,3.2-7.4,3.8-11c0.5-2.8,0.6-2.8,5.2-2.7c0.5,6.6-2.4,12.1-5.3,18.1
	c1.8,2.6,3.7,5.2,5.7,7.9c-4.5,2.1-7,0-9.1-3.5c-5.3,3-10.3,6.7-16.5,4.4c-2.7-1-5.6-2.7-7.4-4.9c-5.1-6.3-3.2-14.3,5.3-23.8
	c-0.8-2-1.9-4.1-2.6-6.3c-1.5-4.7-1.4-9.3,2-13.3c3.3-4,9.1-5.1,13.4-2.6c4.2,2.5,6.5,8.1,4.2,12.9
	C541.7,281.1,538.5,284.3,535.2,288.7z M542,306.8c-4.3-5.6-8.3-10.7-12.4-16.1c-5.8,6.8-6.5,13.9-2.3,18.1
	C531,312.5,536.2,312,542,306.8z M532.3,283.6c4.3-2.5,6.8-5.9,6.5-10.9c-0.2-2.7-1.4-5.1-4.5-5.4c-3.2-0.3-4.7,2-5.2,4.7
	C528.4,276.3,528.8,280.3,532.3,283.6z"/>
<path d="M912.9,299.2c0-10,0-18.9,0-28.2c1.1-0.1,2.1-0.1,3.4-0.2c0,12,0,23.6,0,35.3c-2.7,1.4-4.1,0.2-5.2-2.3
	c-2.9-7.1-6-14.2-9-21.3c-0.4-1-0.9-2-1.9-2.9c0,8.8,0,17.7,0,26.8c-1.2,0-2.3,0-3.6,0c0-11.8,0-23.4,0-35c3.6-1,3.7-1,5.1,2.1
	c3,6.9,5.9,13.9,8.9,20.8C911.3,295.6,911.9,296.9,912.9,299.2z"/>
<path d="M1068.6,289.4c5.9,4.4,4.6,11.2,6.9,17.1c-1.6,0-2.9,0-4.5,0c-0.8-3.4-1.4-6.7-2.3-10c-1.1-4.4-2.5-5.3-7.9-5.3
	c0,5,0,10,0,15.3c-1.6,0.1-2.6,0.2-4.3,0.3c-0.6-11.8-0.1-23.4-0.3-35.1c4.4-1.8,8.6-1.6,12.6-0.1c6,2.2,7.5,10.5,3,15.2
	C1071.1,287.7,1069.9,288.4,1068.6,289.4z M1061,287.6c6.6,0.1,9.2-2.4,8.9-7.9c-0.3-4.7-2.8-6.3-8.9-5.4
	C1061,278.6,1061,282.9,1061,287.6z"/>
<path d="M744.7,291.3c0,5.2,0,10.1,0,15.2c-1.5,0-2.6,0-3.9,0c0-11.7,0-23.3,0-35.2c3.3-1,6.7-1.1,10.1-0.5c3.7,0.7,6.5,2.6,7.4,6.3
	c0.9,3.9,0.3,7.5-2.9,10.3c-0.7,0.6-1.6,1.1-2.6,1.8c6,4.3,4.7,11.1,7,17.2c-1.8,0-3,0-4.6,0c-0.7-3.3-1.2-6.5-2-9.7
	C751.9,292.2,750.2,291,744.7,291.3z M745.1,287.6c6.4,0.2,9.6-2.7,9.1-7.9c-0.4-4.6-3.1-6.3-9.1-5.4
	C745.1,278.6,745.1,282.9,745.1,287.6z"/>
<path d="M679.5,306.4c-1.5,0.1-2.6,0.2-4,0.3c-1-3.6-2-7-3-10.6c-2.9,0-5.6,0-8.7,0c-0.9,3.4-1.9,6.8-2.8,10.4c-1.2,0-2.3,0-4,0
	c3-12,5.9-23.8,8.9-35.7c1.7,0,3.1,0,5,0C673.6,282.6,676.5,294.3,679.5,306.4z M668.5,276.9c-0.3,0-0.5,0.1-0.8,0.1
	c-1.1,5.1-2.2,10.2-3.3,15.5c2.8,0,5,0,7.5,0C670.7,286.9,669.6,281.9,668.5,276.9z"/>
<path d="M587.5,292.4c0,4.5,0,9,0,13.8c-1.4,0.2-2.5,0.4-4.3,0.6c-0.2-12-0.1-23.7-0.1-35.2c9.4-2.7,16.5-0.1,17.9,6.4
	C602.7,286,598.4,290.6,587.5,292.4z M587.7,288.5c6.6,0.1,9.7-2.9,9.3-8.3c-0.4-4.9-3.2-6.7-9.3-5.9
	C587.7,278.9,587.7,283.5,587.7,288.5z"/>
<path d="M993.2,289.7c-3,0-5.7,0-8.8,0c0,4.5,0,8.7,0,13.4c3,0.1,5.9,0.1,8.8,0.3c1.7,0.1,1.7,0.2,2.1,3.1c-5,0-10,0-15.3,0
	c0-11.9,0-23.6,0-35.8c4.4,0,8.4-0.1,12.5,0c1.6,0,1.6,0.2,1.9,3.4c-3.3,0-6.5,0-10.1,0c0,4.1,0,7.8,0,12.1c2.6,0,5,0,7.4,0
	C993.8,286.2,994.2,287.3,993.2,289.7z"/>
<path d="M1150.8,271.7c-0.4,1.1-0.7,1.8-1,2.6c-1.6-0.2-3-0.4-4.5-0.4c-2.5-0.1-4.5,0.8-5.5,3.3c-1,2.4-0.4,4.6,1.4,6.3
	c1.7,1.6,3.7,2.8,5.5,4.2c2.5,2,4.7,4.2,5.2,7.5c1.2,6.9-4,12.4-11.4,12c-1.5-0.1-3-0.4-4.3-0.8c-1.7-0.6-1.6-1.9-0.5-3.5
	c1.3,0.2,2.6,0.6,4,0.7c3.5,0.4,6.3-0.9,7.5-3.5c1.2-2.7,0.7-5.6-1.9-8c-1.5-1.5-3.4-2.6-5-4c-4.9-4-6.3-8-4.3-12.3
	c2.1-4.5,7.3-6.4,13.1-4.9C1149.4,271,1149.8,271.2,1150.8,271.7z"/>
<path d="M824.5,274.3c-2.9-0.1-4.8-0.2-7-0.3c-0.4-1.7-0.7-3.2,1.5-3.3c5.1-0.1,10.2-0.1,15.3,0c1.8,0.1,1.9,1.4,1.3,3.1
	c-2,0.2-4.1,0.3-6.7,0.5c0,10.6,0,21.2,0,32.1c-1.6,0-2.7,0-4.4,0C824.5,295.8,824.5,285.2,824.5,274.3z"/>
<path d="M615.1,234.4c-5.7,0-11.1,0-17.1,0c1.2-13.9,2.5-27.6,3.7-41.6c-11.5,0-22.5,0-33.9,0c-8.1,13.8-16.3,27.8-24.4,41.6
	c-5.6,0-10.8,0-16.6,0c0.6-1.3,0.9-2.4,1.4-3.3c26.3-44.7,52.7-89.4,78.9-134.2c1.3-2.2,2.6-3.3,5.3-3.1c5.1,0.2,10.2,0.1,15.2,0.1
	C628.9,98.1,616.2,227.8,615.1,234.4z M611.9,113.4c-9,13.7-35.4,63-35.8,66c9.3,0,18.5,0,27.7,0
	C606.5,156.9,609.2,135.2,611.9,113.4z"/>
<path d="M940.3,177.2c-6.6,19.5-13.1,38.4-19.4,57.2c-6,0-11.6,0-17.8,0c15.6-46.3,31.1-92.2,46.7-138.2c13.9-2.8,27.7-3.9,41.6-1.2
	c2.8,0.5,5.6,1.6,8.1,2.9c7.2,3.6,11.3,9.5,11.7,17.5c0.2,4.1-0.1,8.4-1.1,12.4c-6.4,27.8-30.8,48-59.4,49.4
	C947.5,177.3,944.1,177.2,940.3,177.2z M945,163.2c1.6,0.4,2.5,0.7,3.4,0.8c23.1,1.9,44.9-18.8,44.4-42c-0.2-7.9-4.3-13.2-12.1-14.4
	c-4.7-0.7-9.6-0.2-14.3-0.2c-1.9,0-2.9,0.9-3.4,2.7c-1.2,4-2.7,7.9-4,11.8C954.3,135.5,949.7,149.1,945,163.2z"/>
<path d="M1064.1,220.3c-1.8,5.3-3.2,9.6-4.8,14.1c-20.4,0-40.6,0-60.8,0c0-3.5,42.6-130.9,46.9-140.2c19.2,0,38.6,0,58.6,0
	c-1.6,4.7-3.1,9.3-4.7,14c-13.7,0-27.2,0-41.2,0c-5.1,15.1-10.2,30.1-15.4,45.4c4.5,1.5,8.6,0.6,12.7,0.7c4.2,0.2,8.4,0,12.5,0
	c4.2,0,8.3,0,13.2,0c-1.6,4.8-3,9-4.6,13.6c-12.9,0-25.7,0-38.6,0c-5.9,17.5-11.7,34.7-17.7,52.4
	C1034.9,220.3,1049,220.3,1064.1,220.3z"/>
<path d="M810.8,230.1c3.1-5,5.8-9.3,8.6-13.8c1.3,0.6,2.4,1.2,3.6,1.6c14.5,5.7,28.3,5.3,40.7-5.2c5.4-4.6,8.9-10.6,10.6-17.4
	c1.6-6.6,0.7-12.9-3.7-18.2c-3.1-3.7-6.7-6.9-10-10.4c-3.5-3.8-7.2-7.4-10.1-11.6c-5.4-7.9-6.5-16.7-3.1-25.8
	c7.5-19.7,22.1-31.1,42.4-35.4c7.9-1.7,16-1.7,23.8,0.8c2.2,0.7,4.4,1.8,7.1,3c-3.2,4.9-6.1,9.3-9,13.8c-1.3-0.6-2.3-1-3.2-1.4
	c-19.3-8.9-41.2,3.1-44,22.7c-0.7,5.2,0.6,9.7,4,13.4c3.1,3.4,6.7,6.5,10.1,9.7c2,1.9,4.1,3.6,6,5.6c9.1,9.6,11.9,20.8,7.8,33.4
	c-7.2,22-22.9,34.7-45.1,39.8c-9.2,2.1-18.5,1.7-27.7-0.9C816.6,232.8,814,231.4,810.8,230.1z"/>
<path d="M1198,96c-3.3,5.1-6,9.4-8.5,13.5c-3.9-0.8-7.3-1.8-10.8-2.1c-9.7-1-18.4,2.1-26.3,7.6c-7.6,5.3-13.8,12.1-18.7,19.9
	c-11.4,18.3-18.9,37.9-20.3,59.6c-0.2,4.1,0.3,8.4,1.4,12.4c2.4,8.9,9.1,14,18.3,14.5c5.6,0.3,11.2,0,16.7-1.6
	c1-0.3,2.1-0.4,3.7-0.8c-0.5,4.2-0.8,8-1.6,11.7c-0.2,0.9-1.6,2-2.6,2.3c-12.1,3.6-24.4,4.5-36.5,0.4c-10.5-3.6-16.2-11.7-18.3-22.4
	c-1.8-9-1-17.9,0.9-26.8c4.7-22,13-42.4,27-60.1c10.6-13.4,23.7-23.5,40.3-28.6c9.1-2.8,18.3-3.4,27.6-1.7
	C1192.7,94.2,1194.9,95.1,1198,96z"/>
<path d="M639.2,234.4c15.9-47.1,31.6-93.6,47.4-140.3c5.8,0,11.3,0,17.7,0c-6.9,21.3-14.1,42.1-21.2,63c-7,21-14.1,41.9-21.5,63.7
	c7.7,0.1,14.7,0,21.7,0.1c7,0,14,0,21.7,0c-1.7,5-3.1,9.2-4.5,13.5C680.2,234.4,660.1,234.4,639.2,234.4z"/>
<path d="M772.4,94.1c6,0,11.5,0,17.7,0c-6.9,21.4-14.2,42.2-21.2,63.1c-7,21-14.1,41.9-21.5,63.7c14.7,0.2,28.7,0,43.4,0.1
	c-1.6,4.7-3,8.9-4.5,13.4c-20.3,0-40.5,0-61.3,0C740.8,187.5,756.5,140.9,772.4,94.1z"/>
</svg>
