<?xml version="1.0" encoding="utf-8"?>
<!-- Generator: Adobe Illustrator 21.1.0, SVG Export Plug-In . SVG Version: 6.00 Build 0)  -->
<svg version="1.1" id="Layer_1" xmlns="http://www.w3.org/2000/svg" xmlns:xlink="http://www.w3.org/1999/xlink" x="0px" y="0px"
	 viewBox="0 0 976 234" style="enable-background:new 0 0 976 234;" xml:space="preserve">
<style type="text/css">
	.st0{fill:#E2E2E2;}
	.st1{fill:#989898;}
	.st2{fill:#FF0000;}
</style>
<path class="st0" d="M64.4,184c0.9-4.9,1-1.3,9.1-1.2c0.9,11.6-4.3,21.4-9.3,31.9c3.2,4.5,6.5,9.1,10,13.9
	c-7.9,3.8-12.4,0.1-16.1-6.1c-9.4,5.4-18.3,11.9-29.1,7.7c-4.8-1.8-9.9-4.8-13.1-8.7c-9-11.2-5.6-25.2,9.3-42.1
	c-1.5-3.5-3.4-7.2-4.6-11.1c-2.7-8.3-2.4-16.4,3.5-23.5c5.9-7.1,16-9,23.6-4.6c7.4,4.3,11.5,14.3,7.4,22.7
	c-3.3,6.8-9,12.5-14.8,20.3c5.3,7.2,11.1,15.2,17.4,23.6c5.3-6.3,5.6-13,6.8-19.4 M52.3,215.2c-7.6-9.8-14.7-19-21.9-28.3
	c-10.2,12-11.4,24.5-4,32C32.8,225.4,42,224.4,52.3,215.2z M35.2,174.4c7.6-4.4,12-10.4,11.4-19.2c-0.3-4.8-2.5-9-7.9-9.5
	c-5.6-0.5-8.3,3.5-9.1,8.2C28.2,161.4,29,168.6,35.2,174.4z"/>
<g>
	<path class="st1" d="M575.1,222.5c0-14,0-26.5,0-39.5c1.6-0.1,3-0.1,4.8-0.2c0,16.8,0,33.1,0,49.5c-3.8,1.9-5.7,0.3-7.2-3.3
		c-4.1-10-8.4-19.9-12.7-29.9c-0.6-1.4-1.3-2.8-2.6-4.1c0,12.4,0,24.8,0,37.6c-1.7,0-3.2,0-5,0c0-16.5,0-32.8,0-49.1
		c5.1-1.3,5.2-1.4,7.1,3c4.2,9.7,8.3,19.5,12.5,29.2C572.7,217.5,573.6,219.3,575.1,222.5z"/>
	<path class="st1" d="M793.2,208.8c8.3,6.2,6.4,15.8,9.7,23.9c-2.3,0-4,0-6.3,0c-1.1-4.7-2-9.4-3.2-14.1c-1.6-6.1-3.5-7.4-11.1-7.4
		c0,7,0,14,0,21.4c-2.2,0.2-3.7,0.3-6,0.4c-0.8-16.6-0.2-32.8-0.4-49.2c6.1-2.5,12-2.3,17.7-0.2c8.3,3.1,10.5,14.7,4.2,21.3
		C796.6,206.3,795,207.3,793.2,208.8z M782.5,206.3c9.2,0.1,12.9-3.4,12.4-11.1c-0.4-6.6-3.9-8.9-12.4-7.6
		C782.5,193.6,782.5,199.7,782.5,206.3z"/>
	<path class="st1" d="M339.3,211.4c0,7.3,0,14.1,0,21.3c-2.1,0-3.6,0-5.5,0c0-16.4,0-32.6,0-49.3c4.7-1.5,9.3-1.5,14.1-0.7
		c5.2,0.9,9.1,3.6,10.3,8.9c1.3,5.4,0.5,10.6-4.1,14.5c-1,0.9-2.2,1.6-3.6,2.5c8.4,6,6.5,15.6,9.8,24c-2.5,0-4.2,0-6.5,0
		c-1-4.6-1.7-9.2-2.8-13.6C349.5,212.7,347.1,211.1,339.3,211.4z M339.9,206.2c9,0.2,13.4-3.8,12.8-11c-0.6-6.5-4.3-8.9-12.8-7.6
		C339.9,193.6,339.9,199.7,339.9,206.2z"/>
	<path class="st1" d="M248,232.6c-2.1,0.1-3.7,0.2-5.6,0.4c-1.4-5-2.7-9.8-4.2-14.9c-4.1,0-7.9,0-12.2,0c-1.3,4.8-2.6,9.6-4,14.6
		c-1.7,0-3.2,0-5.6,0c4.2-16.9,8.3-33.3,12.4-50c2.3,0,4.3,0,7,0C239.8,199.2,243.8,215.7,248,232.6z M232.6,191.2
		c-0.4,0-0.8,0.1-1.1,0.1c-1.5,7.2-3,14.3-4.6,21.6c3.9,0,7,0,10.5,0C235.7,205.3,234.2,198.2,232.6,191.2z"/>
	<path class="st1" d="M119.1,213c0,6.2,0,12.6,0,19.4c-2,0.3-3.5,0.5-6,0.9c-0.3-16.8-0.1-33.2-0.1-49.4c13.2-3.8,23.1-0.1,25,9
		C140.4,204,134.4,210.5,119.1,213z M119.3,207.5c9.2,0.1,13.6-4.1,13-11.7c-0.5-6.8-4.4-9.4-13-8.3
		C119.3,194,119.3,200.6,119.3,207.5z"/>
	<path class="st1" d="M687.5,209.1c-4.2,0-8,0-12.4,0c0,6.3,0,12.2,0,18.7c4.1,0.1,8.2,0.2,12.3,0.4c2.4,0.1,2.4,0.3,2.9,4.3
		c-7,0-14,0-21.4,0c0-16.7,0-33.1,0-50.2c6.1,0,11.8-0.1,17.5,0c2.3,0.1,2.2,0.3,2.7,4.7c-4.6,0-9.1,0-14.1,0c0,5.8,0,10.9,0,17
		c3.6,0,7-0.1,10.4,0C688.3,204.3,688.9,205.8,687.5,209.1z"/>
	<path class="st1" d="M908.3,183.9c-0.6,1.5-1,2.5-1.4,3.7c-2.2-0.2-4.2-0.6-6.2-0.6c-3.5-0.1-6.3,1.2-7.7,4.7
		c-1.4,3.4-0.6,6.5,1.9,8.8c2.3,2.2,5.1,3.9,7.6,5.9c3.5,2.7,6.5,5.8,7.3,10.5c1.6,9.6-5.6,17.3-16,16.8c-2-0.1-4.1-0.5-6.1-1.2
		c-2.4-0.8-2.2-2.6-0.7-4.9c1.8,0.3,3.7,0.8,5.7,1c5,0.6,8.8-1.2,10.4-4.9c1.7-3.8,0.9-7.8-2.7-11.2c-2.2-2.1-4.7-3.7-7-5.6
		c-6.9-5.6-8.9-11.2-6-17.3c3-6.3,10.3-9,18.3-6.8C906.4,183,907,183.3,908.3,183.9z"/>
	<path class="st1" d="M451.2,187.6c-4-0.2-6.7-0.3-9.8-0.5c-0.6-2.4-1-4.5,2.1-4.6c7.1-0.2,14.3-0.2,21.4,0c2.5,0.1,2.6,2,1.8,4.4
		c-2.8,0.2-5.7,0.5-9.4,0.8c0,14.9,0,29.8,0,45c-2.3,0-3.8,0-6.1,0C451.2,217.8,451.2,203,451.2,187.6z"/>
</g>
<g>
	<polygon class="st2" points="34.2,19.2 176,19.2 150.5,56.8 105.4,56.7 121.8,84.6 72.9,84.4 	"/>
	<polygon class="st1" points="75,93.7 127.2,93.7 100.2,134 	"/>
</g>
<path d="M112.3,154.3c0.7-1.4,98.2-143.2,101.3-143.1 M209.9,11.2c0,0,15.8,0.1,21.7,0.1c1.4,4.3-13.7,136.3-15,143
	c-6.7,0-13.2,0-20.2,0c1.5-14.2,2.9-28.1,4.4-42.4c-13.6,0-26.7,0-40.1,0c-9.6,14.1-28.8,42.4-28.8,42.4h-19.6 M212.9,31.2
	c-10.7,13.9-41.9,64.2-42.4,67.2c11,0,21.9,0,32.7,0C206.5,75.5,209.7,53.3,212.9,31.2z"/>
<path d="M637.4,96c-7.8,19.8-15.4,39.1-23,58.3c-7.2,0-13.7,0-21.1,0c18.5-47.1,36.9-93.8,55.3-140.7c16.5-2.8,32.8-4,49.3-1.2
	c3.3,0.6,6.6,1.7,9.6,3c8.5,3.6,13.4,9.7,13.9,17.8c0.3,4.2-0.2,8.5-1.3,12.6C712.5,74,683.7,94.6,649.8,96
	C645.9,96.2,641.9,96,637.4,96z M642.9,81.8c1.8,0.4,2.9,0.7,4,0.8c27.4,1.9,53.2-19.1,52.5-42.8c-0.2-8-5.1-13.5-14.3-14.7
	c-5.5-0.7-11.3-0.2-17-0.2c-2.2,0-3.4,1-4,2.8c-1.5,4-3.1,8-4.7,12.1C654,53.6,648.5,67.5,642.9,81.8z"/>
<path d="M798.5,139.9c-2.1,5.4-3.8,9.8-5.6,14.4c-24.2,0-48.1,0-72,0c0.1-3.6,50.4-133.2,55.5-142.7c22.8,0,45.7,0,69.3,0
	c-1.9,4.8-3.7,9.4-5.5,14.2c-16.2,0-32.2,0-48.7,0c-6,15.4-12,30.6-18.2,46.2c5.3,1.5,10.2,0.6,15,0.7c4.9,0.2,9.9,0,14.8,0
	c4.9,0,9.8,0,15.6,0c-1.9,4.9-3.6,9.2-5.4,13.9c-15.2,0-30.4,0-45.7,0c-7,17.9-13.9,35.3-20.9,53.3
	C764,139.9,780.6,139.9,798.5,139.9z"/>
<path d="M471,149.9c3.7-5,6.8-9.4,10.2-14.1c1.6,0.6,2.9,1.2,4.2,1.6c17.2,5.8,33.5,5.4,48.1-5.3c6.4-4.7,10.5-10.8,12.5-17.8
	c1.9-6.7,0.8-13.1-4.4-18.6c-3.6-3.8-8-7-11.8-10.6c-4.1-3.8-8.5-7.5-11.9-11.8c-6.4-8.1-7.7-17-3.6-26.2c8.9-20,26.1-31.6,50.2-36
	c9.4-1.7,18.9-1.7,28.2,0.9c2.7,0.7,5.2,1.8,8.4,3c-3.8,5-7.2,9.5-10.7,14.1c-1.5-0.6-2.7-1-3.8-1.5c-22.8-9.1-48.8,3.2-52,23.1
	c-0.9,5.2,0.7,9.8,4.7,13.6c3.7,3.5,7.9,6.6,11.9,9.8c2.3,1.9,4.9,3.7,7.1,5.7c10.8,9.8,14.1,21.2,9.2,34
	c-8.5,22.4-27.1,35.4-53.3,40.5c-10.9,2.1-21.9,1.7-32.7-1C478,152.7,474.8,151.2,471,149.9z"/>
<path d="M971.4,13.4c-3.8,5.2-7.1,9.6-10.1,13.7c-4.7-0.8-8.7-1.8-12.8-2.2c-11.5-1-21.7,2.1-31.1,7.7c-9,5.4-16.3,12.3-22.1,20.3
	c-13.5,18.6-22.4,38.6-24,60.6c-0.3,4.2,0.4,8.5,1.6,12.6c2.8,9,10.8,14.2,21.6,14.8c6.7,0.3,13.3,0,19.8-1.7
	c1.2-0.3,2.5-0.5,4.4-0.8c-0.6,4.2-1,8.1-1.8,11.9c-0.2,0.9-1.8,2.1-3.1,2.4c-14.3,3.7-28.9,4.6-43.2,0.4
	c-12.5-3.7-19.1-11.9-21.7-22.8c-2.2-9.2-1.2-18.3,1.1-27.3c5.5-22.4,15.3-43.1,32-61.2c12.6-13.6,28-23.9,47.6-29.1
	c10.7-2.8,21.6-3.5,32.7-1.7C965.1,11.6,967.7,12.5,971.4,13.4z"/>
<path d="M418.2,11.4c7.1,0,13.6,0,20.9,0c-8.2,21.7-16.8,42.9-25.1,64.2c-8.3,21.3-16.7,42.7-25.4,64.8c17.4,0.2,34,0,51.4,0.1
	c-1.9,4.8-3.6,9.1-5.3,13.6c-24,0-47.9,0-72.5,0C380.8,106.6,399.5,59.1,418.2,11.4z"/>
<path d="M304.3,11.4c7.1,0,13.6,0,20.9,0c-8.2,21.7-16.8,42.9-25.1,64.2c-8.3,21.3-16.7,42.7-25.4,64.8c17.4,0.2,34,0,51.4,0.1
	c-1.9,4.8-3.6,9.1-5.3,13.6c-24,0-47.9,0-72.5,0C266.9,106.6,285.5,59.1,304.3,11.4z"/>
</svg>
