<?xml version="1.0" encoding="utf-8"?>
<!-- Generator: Adobe Illustrator 21.1.0, SVG Export Plug-In . SVG Version: 6.00 Build 0)  -->
<svg version="1.1" id="Layer_1" xmlns="http://www.w3.org/2000/svg" xmlns:xlink="http://www.w3.org/1999/xlink" x="0px" y="0px"
	 viewBox="0 0 1061 284" style="enable-background:new 0 0 1061 284;" xml:space="preserve">
<style type="text/css">
	.st0{fill:#FF0000;}
	.st1{fill:#989898;}
</style>
<polygon points="258.5,232.6 14.3,232.3 42.9,178.3 158,177.9 140.8,143.7 212,143.2 "/>
<polygon class="st0" points="152.6,-0.2 395.8,-0.2 360.8,63.8 256.9,63.8 273.7,96.6 202.1,96.1 "/>
<polygon points="136.5,1.4 205.5,131.3 135.7,131.6 101.4,66.5 136.5,1.4 "/>
<polygon points="207.7,112.9 278,112.9 308,164.6 272.2,232.6 "/>
<polygon class="st1" points="67.3,34.9 119.3,130.1 17.8,130.5 67.3,34.9 "/>
<polygon class="st0" points="292.5,112.9 413.4,112.9 356.2,220.3 "/>
<polygon class="st1" points="136,165.5 0,165.6 12.4,142.9 123.9,143.2 "/>
<polygon class="st0" points="433,75.7 421.9,96.6 286.5,96.6 276.4,75.7 "/>
<path d="M397,260.2c0.4-2.4,0.5-0.6,4.6-0.6c0.4,5.8-2.2,10.7-4.7,16c1.6,2.3,3.3,4.6,5,7c-3.9,1.9-6.2,0-8.1-3.1
	c-4.7,2.7-9.1,5.9-14.6,3.9c-2.4-0.9-5-2.4-6.5-4.3c-4.5-5.6-2.8-12.6,4.7-21.1c-0.7-1.8-1.7-3.6-2.3-5.5c-1.4-4.2-1.2-8.2,1.7-11.8
	c3-3.6,8-4.5,11.8-2.3c3.7,2.2,5.8,7.2,3.7,11.4c-1.7,3.4-4.5,6.3-7.4,10.2c2.7,3.6,5.6,7.6,8.7,11.8c2.7-3.2,2.8-6.5,3.4-9.7
	 M391,275.8c-3.8-4.9-7.3-9.5-11-14.2c-5.1,6-5.7,12.3-2,16C381.2,280.9,385.8,280.4,391,275.8z M382.4,255.3c3.8-2.2,6-5.2,5.7-9.6
	c-0.2-2.4-1.2-4.5-4-4.8c-2.8-0.2-4.1,1.7-4.6,4.1C378.9,248.8,379.3,252.4,382.4,255.3z"/>
<path d="M773.5,276.1c0-10.2,0-19.4,0-28.8c1.1-0.1,2.2-0.1,3.5-0.2c0,12.3,0,24.1,0,36.1c-2.8,1.4-4.2,0.2-5.3-2.4
	c-3-7.3-6.1-14.5-9.2-21.8c-0.4-1-0.9-2.1-1.9-3c0,9,0,18.1,0,27.4c-1.3,0-2.3,0-3.7,0c0-12.1,0-23.9,0-35.8c3.7-1,3.8-1,5.2,2.2
	c3.1,7.1,6.1,14.2,9.1,21.3C771.8,272.5,772.4,273.8,773.5,276.1z"/>
<path d="M932.7,266.1c6.1,4.5,4.7,11.5,7.1,17.5c-1.7,0-2.9,0-4.6,0c-0.8-3.4-1.4-6.9-2.3-10.3c-1.1-4.4-2.5-5.4-8.1-5.4
	c0,5.1,0,10.2,0,15.6c-1.6,0.1-2.7,0.2-4.4,0.3c-0.6-12.1-0.1-23.9-0.3-35.9c4.5-1.8,8.8-1.7,12.9-0.1c6.1,2.2,7.7,10.7,3.1,15.6
	C935.2,264.3,934,265.1,932.7,266.1z M924.9,264.3c6.7,0.1,9.4-2.4,9.1-8.1c-0.3-4.8-2.9-6.5-9.1-5.5
	C924.9,255.1,924.9,259.5,924.9,264.3z"/>
<path d="M601.4,268c0,5.3,0,10.3,0,15.5c-1.5,0-2.6,0-4,0c0-11.9,0-23.8,0-36c3.4-1.1,6.8-1.1,10.3-0.5c3.8,0.7,6.6,2.6,7.5,6.5
	c0.9,4,0.3,7.7-3,10.6c-0.8,0.6-1.6,1.2-2.6,1.8c6.1,4.4,4.8,11.4,7.2,17.5c-1.8,0-3.1,0-4.7,0c-0.7-3.4-1.3-6.7-2.1-9.9
	C608.9,269,607.1,267.8,601.4,268z M601.8,264.2c6.5,0.2,9.8-2.8,9.3-8c-0.4-4.7-3.2-6.5-9.3-5.6
	C601.8,255.1,601.8,259.5,601.8,264.2z"/>
<path d="M534.8,283.5c-1.6,0.1-2.7,0.2-4.1,0.3c-1-3.6-2-7.1-3-10.9c-3,0-5.8,0-8.9,0c-0.9,3.5-1.9,7-2.9,10.7c-1.2,0-2.3,0-4.1,0
	c3.1-12.3,6-24.3,9.1-36.5c1.7,0,3.1,0,5.1,0C528.8,259.2,531.7,271.2,534.8,283.5z M523.6,253.3c-0.3,0-0.5,0.1-0.8,0.1
	c-1.1,5.2-2.2,10.5-3.3,15.8c2.9,0,5.1,0,7.7,0C525.8,263.6,524.7,258.4,523.6,253.3z"/>
<path d="M440.7,269.2c0,4.6,0,9.2,0,14.1c-1.5,0.2-2.5,0.4-4.4,0.6c-0.2-12.3-0.1-24.2-0.1-36c9.7-2.8,16.9-0.1,18.3,6.6
	C456.2,262.6,451.9,267.4,440.7,269.2z M440.9,265.2c6.7,0.1,9.9-3,9.5-8.5c-0.4-5-3.2-6.9-9.5-6.1
	C440.9,255.3,440.9,260.1,440.9,265.2z"/>
<path d="M855.5,266.4c-3,0-5.9,0-9,0c0,4.6,0,8.9,0,13.7c3,0.1,6,0.1,9,0.3c1.8,0.1,1.8,0.2,2.2,3.2c-5.1,0-10.2,0-15.6,0
	c0-12.2,0-24.2,0-36.6c4.5,0,8.6-0.1,12.8,0c1.6,0,1.6,0.2,2,3.5c-3.3,0-6.6,0-10.3,0c0,4.2,0,8,0,12.4c2.6,0,5.1,0,7.6,0
	C856.1,262.9,856.6,264,855.5,266.4z"/>
<path d="M1016.7,248c-0.4,1.1-0.7,1.8-1.1,2.7c-1.6-0.2-3.1-0.4-4.6-0.5c-2.5-0.1-4.6,0.8-5.6,3.4c-1,2.5-0.5,4.7,1.4,6.4
	c1.7,1.6,3.7,2.8,5.6,4.3c2.6,2,4.8,4.2,5.3,7.6c1.2,7-4.1,12.6-11.7,12.3c-1.5-0.1-3-0.4-4.4-0.9c-1.7-0.6-1.6-1.9-0.5-3.5
	c1.3,0.2,2.7,0.6,4.1,0.8c3.6,0.4,6.4-0.9,7.6-3.6c1.3-2.8,0.7-5.7-2-8.2c-1.6-1.5-3.4-2.7-5.1-4.1c-5-4.1-6.5-8.2-4.4-12.6
	c2.2-4.6,7.5-6.6,13.4-5C1015.3,247.3,1015.8,247.6,1016.7,248z"/>
<path d="M683.1,250.6c-2.9-0.1-4.9-0.2-7.2-0.3c-0.4-1.7-0.7-3.3,1.6-3.4c5.2-0.1,10.4-0.1,15.6,0c1.9,0.1,1.9,1.5,1.3,3.2
	c-2,0.2-4.2,0.3-6.9,0.6c0,10.9,0,21.7,0,32.8c-1.7,0-2.8,0-4.4,0C683.1,272.7,683.1,261.9,683.1,250.6z"/>
<path d="M464.9,221.1c-5.8,0-11.4,0-17.4,0c1.3-14.2,2.5-28.2,3.8-42.6c-11.8,0-23.1,0-34.7,0c-8.3,14.1-16.6,28.4-24.9,42.6
	c-5.7,0-11.1,0-16.9,0c0.6-1.4,0.9-2.4,1.4-3.3c26.9-45.7,53.8-91.4,80.7-137.2c1.3-2.2,2.7-3.3,5.4-3.2c5.2,0.2,10.5,0.1,15.6,0.1
	C479.1,81.7,466,214.3,464.9,221.1z M461.7,97.4c-9.2,14-36.2,64.5-36.6,67.5c9.5,0,18.9,0,28.3,0
	C456.2,141.9,458.9,119.6,461.7,97.4z"/>
<path d="M797.5,162.5c-6.8,19.9-13.3,39.3-19.9,58.5c-6.2,0-11.9,0-18.2,0c16-47.3,31.9-94.2,47.8-141.4c14.2-2.9,28.3-4,42.6-1.2
	c2.9,0.6,5.7,1.7,8.3,3c7.4,3.6,11.5,9.7,12,17.9c0.2,4.2-0.2,8.6-1.1,12.7c-6.6,28.4-31.5,49-60.7,50.5
	C804.8,162.7,801.4,162.5,797.5,162.5z M802.3,148.2c1.6,0.4,2.5,0.7,3.5,0.8c23.6,1.9,45.9-19.2,45.4-43
	c-0.2-8.1-4.4-13.5-12.4-14.7c-4.8-0.7-9.8-0.2-14.7-0.2c-1.9,0-2.9,1-3.5,2.8c-1.3,4.1-2.7,8.1-4.1,12.1
	C811.8,119.9,807.1,133.9,802.3,148.2z"/>
<path d="M924.1,206.6c-1.8,5.4-3.3,9.8-4.9,14.4c-20.9,0-41.5,0-62.2,0c0-3.6,43.6-133.9,47.9-143.4c19.7,0,39.5,0,59.9,0
	c-1.6,4.9-3.2,9.5-4.8,14.3c-14,0-27.8,0-42.1,0c-5.2,15.4-10.4,30.7-15.7,46.4c4.6,1.5,8.8,0.6,13,0.7c4.3,0.2,8.5,0,12.8,0
	c4.2,0,8.5,0,13.4,0c-1.7,4.9-3.1,9.2-4.7,13.9c-13.2,0-26.3,0-39.5,0c-6.1,17.9-12,35.5-18.1,53.6
	C894.2,206.6,908.6,206.6,924.1,206.6z"/>
<path d="M665,216.6c3.2-5.1,5.9-9.5,8.8-14.2c1.4,0.6,2.5,1.2,3.7,1.6c14.8,5.9,28.9,5.4,41.6-5.3c5.5-4.7,9.1-10.8,10.8-17.8
	c1.6-6.7,0.7-13.2-3.8-18.6c-3.1-3.8-6.9-7-10.2-10.6c-3.6-3.8-7.4-7.5-10.3-11.8c-5.5-8.1-6.7-17.1-3.1-26.3
	c7.7-20.1,22.6-31.8,43.4-36.2c8.1-1.7,16.3-1.7,24.4,0.9c2.3,0.7,4.5,1.8,7.3,3c-3.3,5-6.2,9.5-9.2,14.2c-1.3-0.6-2.3-1-3.3-1.5
	c-19.7-9.1-42.2,3.2-45,23.2c-0.7,5.3,0.6,9.9,4,13.7c3.2,3.5,6.8,6.6,10.3,9.9c2,1.9,4.2,3.7,6.1,5.7c9.3,9.8,12.2,21.3,7.9,34.1
	c-7.4,22.5-23.4,35.5-46.1,40.7c-9.4,2.1-19,1.8-28.3-1C671,219.4,668.3,218,665,216.6z"/>
<path d="M1061,79.5c-3.3,5.3-6.1,9.6-8.7,13.8c-4-0.8-7.5-1.8-11.1-2.2c-10-1.1-18.8,2.1-26.9,7.8c-7.8,5.5-14.1,12.4-19.1,20.4
	c-11.7,18.7-19.4,38.8-20.7,60.9c-0.3,4.2,0.3,8.6,1.4,12.6c2.4,9.1,9.3,14.3,18.7,14.8c5.8,0.3,11.5,0,17.1-1.7
	c1.1-0.3,2.2-0.5,3.8-0.8c-0.5,4.3-0.8,8.2-1.6,12c-0.2,1-1.6,2.1-2.7,2.4c-12.4,3.7-24.9,4.6-37.3,0.4
	c-10.8-3.7-16.5-11.9-18.8-22.9c-1.9-9.2-1-18.4,0.9-27.4c4.8-22.5,13.2-43.3,27.7-61.5c10.9-13.7,24.2-24,41.2-29.2
	c9.3-2.8,18.7-3.5,28.2-1.7C1055.5,77.7,1057.8,78.6,1061,79.5z"/>
<path d="M489.5,221.1c16.3-48.1,32.4-95.7,48.5-143.5c5.9,0,11.6,0,18.1,0c-7,21.7-14.5,43-21.6,64.4c-7.2,21.4-14.5,42.9-22,65.2
	c7.9,0.1,15,0,22.2,0.1c7.2,0,14.3,0,22.2,0c-1.7,5.1-3.1,9.4-4.6,13.8C531.5,221.1,511,221.1,489.5,221.1z"/>
<path d="M625.7,77.6c6.1,0,11.7,0,18.1,0c-7.1,21.8-14.5,43.1-21.7,64.5c-7.2,21.4-14.5,42.9-22,65.1c15,0.2,29.4,0,44.4,0.1
	c-1.6,4.8-3.1,9.1-4.6,13.7c-20.7,0-41.4,0-62.7,0C593.4,173.1,609.6,125.5,625.7,77.6z"/>
</svg>
