<?xml version="1.0" encoding="utf-8"?>
<!-- Generator: Adobe Illustrator 21.1.0, SVG Export Plug-In . SVG Version: 6.00 Build 0)  -->
<svg version="1.1" id="Layer_1" xmlns="http://www.w3.org/2000/svg" xmlns:xlink="http://www.w3.org/1999/xlink" x="0px" y="0px"
	 viewBox="0 0 1366 316" style="enable-background:new 0 0 1366 316;" xml:space="preserve">
<style type="text/css">
	.st0{fill:#4D4D4D;}
	.st1{fill:#FF0000;}
</style>
<path class="st0" d="M-62,45.2c108,0,215.6,0,323.7,0c-0.7,1.5-1.2,2.6-1.8,3.7c-22.2,37.5-44.4,74.9-66.6,112.4
	c-2,3.4-4.2,6.6-6.3,9.9c-1.4,2.3-3.4,3.4-6.1,3.3c-1.3-0.1-2.6,0-3.9,0c-77.7,0-155.3,0-233,0c-9,0-7.9-0.4-7.9-7.7
	c0-14.2,0.4-28.4,0.6-42.6c0.4-24.6,0.8-49.3,1.3-73.9C-61.9,48.7-62,47.1-62,45.2z"/>
<path d="M542.2,322c-123.1-1.3-245.5-2.5-367.6-3.8c-0.3-0.5-0.4-0.6-0.5-0.7c-0.1-0.1-0.1-0.3-0.1-0.4
	c15.6-26.6,31.2-53.2,46.8-79.7c0.7-1.3,1.6-2.4,2.4-3.7c54.6,0.6,109.1,1.2,164.2,1.7c-0.7-1.5-1-2.7-1.6-3.7
	c-5-9-10.1-17.9-15-26.9c-1.3-2.4-2.4-4.9-3.9-8c2.3-0.2,3.9-0.5,5.4-0.5c31.3,0,62.7,0,94-0.1c3.5,0,5.8,1.1,7.5,4.2
	c8,14.4,16.2,28.7,24.3,43c13.9,24.6,27.7,49.2,41.6,73.7C540.4,318.4,541.1,319.9,542.2,322z"/>
<path class="st1" d="M369.7-3c123,1.3,245.3,2.5,368.2,3.8c-0.7,1.6-1,2.5-1.6,3.4c-15.2,25.9-30.5,51.7-45.7,77.6
	c-1.4,2.4-3,3.4-5.8,3.3c-25.5-0.4-50.9-0.6-76.4-0.9c-11.7-0.1-23.5-0.2-35.2-0.4c-14.5-0.1-29-0.3-43.6-0.4c-1.6,0-3.2,0-5.7,0
	c6,11,11.6,21.3,17.7,32.5c-2.8,0.4-4.6,0.8-6.4,0.8c-13.9,0.1-27.7,0-41.6,0c-16.6,0-33.3-0.1-49.9,0.1c-4.5,0.1-7.2-1.5-9.4-5.4
	c-13.5-24-27.2-48-40.8-72c-7.1-12.5-14.1-25-21.1-37.5C371.5,0.7,370.8-0.7,369.7-3z"/>
<path d="M361.1-0.2c32.4,57.9,64.3,114.7,96.1,171.6c0.4,0.6,0.3,1.5,0.6,2.7c-1.9,0.1-3.5,0.3-5.1,0.3c-30.8,0-61.6-0.1-92.5,0.1
	c-4.3,0-7-1.3-9.1-5c-9.3-16.6-18.8-33.2-28.2-49.8c-5.3-9.4-10.5-18.8-15.9-28.4C324.9,61.2,342.7,31,361.1-0.2z"/>
<path class="st1" d="M550.6,315.9c-5.9-8.4-89.3-157.3-90.3-161.1c1.8-2.2,4.4-1.5,6.8-1.5c24.3-0.1,48.6,0,72.9,0
	c5.9,0,11.8,0.2,17.6-0.1c4.1-0.2,6.8,1.2,8.7,4.7c4.1,7.4,8.4,14.7,12.5,22.1c7.8,13.9,15.6,27.9,23.5,41.8
	c1.3,2.3,1.7,4.1,0.2,6.7c-17,28.6-33.9,57.3-50.9,85.9C551.6,314.8,551.2,315.1,550.6,315.9z"/>
<path class="st0" d="M272.9,46.1c6.1,8.2,68.5,122.3,69.8,127.7c-1.9,0.2-3.8,0.5-5.6,0.5c-16.6,0-33.3,0-49.9,0
	c-26.8,0-53.5,0-80.3,0c-2.1,0-4.2,0-7.3,0c0.9-2.4,1.4-4.1,2.2-5.5c3.5-6.3,6.9-12.6,10.5-18.8c19.1-33,38.3-66,57.4-99
	C270.7,49.5,271.8,47.9,272.9,46.1z"/>
<path class="st1" d="M573.5,154c3.5-0.9,122.7-1.5,130.3-0.7c1.1,0.1,2.1,0.6,3.5,1c-0.6,1.5-0.8,2.8-1.5,3.8
	c-22.2,37.6-44.4,75.2-66.7,112.9C634.8,265.5,574.8,158.5,573.5,154z"/>
<path class="st0" d="M-63.5,196.5c78.1,0,156.1,0,235,0c-0.8,2-1.3,3.6-2,4.9c-4.5,7.6-9.1,15.1-13.5,22.7c-0.9,1.6-2.1,2.4-3.9,2.3
	c-1.1-0.1-2.3,0-3.4,0c-69,0-138,0-207.1,0c-1.9,0-3.9,0-5.7,0C-65.6,220.7-65.1,201-63.5,196.5z"/>
<path class="st0" d="M374.7,228.6c-2.6,0-4.2,0-5.8,0c-22.7-0.2-45.4-0.3-68-0.5c-32-0.3-64-0.6-95.9-1c-12.1-0.2-24.1-0.8-36.5-1.2
	c0.1-0.6,0.1-1.4,0.5-2c4.7-7.7,9.4-15.3,14-23c2-3.4,4.6-4.9,8.7-4.9c53,0.1,106.1,0.1,159.1,0c3.9,0,6.4,1.3,8.3,4.7
	C363.9,209.7,369.1,218.6,374.7,228.6z"/>
<path class="st1" d="M536.6,90.3c69.4,0.7,138.8,1.5,209,2.2c-2.1,3.7-3.8,6.8-5.6,9.8c-2.3,3.8-4.7,7.5-6.9,11.2
	c-1.4,2.3-3.3,3.5-6,3.4c-1-0.1-2,0-2.9,0c-55.3,0-110.6,0-165.8,0c-1.6,0-3.3,0.2-4.9-0.2c-1.3-0.3-3-1-3.7-2
	c-4.8-7.7-9.4-15.5-14-23.3C536.1,91,536.4,90.6,536.6,90.3z"/>
<path d="M703.2,288.7c3,4.1,6.3,8.6,9.9,13.4c3-3.6,3.2-7.4,3.8-11c0.5-2.8,0.6-2.8,5.2-2.7c0.5,6.6-2.4,12.1-5.3,18.1
	c1.8,2.6,3.7,5.2,5.7,7.9c-4.5,2.1-7,0-9.1-3.5c-5.3,3-10.3,6.7-16.5,4.4c-2.7-1-5.6-2.7-7.4-4.9c-5.1-6.3-3.2-14.3,5.3-23.8
	c-0.8-2-1.9-4.1-2.6-6.3c-1.5-4.7-1.4-9.3,2-13.3c3.3-4,9.1-5.1,13.4-2.6c4.2,2.5,6.5,8.1,4.2,12.9
	C709.7,281.1,706.5,284.3,703.2,288.7z M710,306.8c-4.3-5.6-8.3-10.7-12.4-16.1c-5.8,6.8-6.5,13.9-2.3,18.1
	C699,312.5,704.2,312,710,306.8z M700.3,283.6c4.3-2.5,6.8-5.9,6.5-10.9c-0.2-2.7-1.4-5.1-4.5-5.4c-3.2-0.3-4.7,2-5.2,4.7
	C696.4,276.3,696.8,280.3,700.3,283.6z"/>
<path d="M1080.9,299.2c0-10,0-18.9,0-28.2c1.1-0.1,2.1-0.1,3.4-0.2c0,12,0,23.6,0,35.3c-2.7,1.4-4.1,0.2-5.2-2.3
	c-2.9-7.1-6-14.2-9-21.3c-0.4-1-0.9-2-1.9-2.9c0,8.8,0,17.7,0,26.8c-1.2,0-2.3,0-3.6,0c0-11.8,0-23.4,0-35c3.6-1,3.7-1,5.1,2.1
	c3,6.9,5.9,13.9,8.9,20.8C1079.3,295.6,1079.9,296.9,1080.9,299.2z"/>
<path d="M1236.6,289.4c5.9,4.4,4.6,11.2,6.9,17.1c-1.6,0-2.9,0-4.5,0c-0.8-3.4-1.4-6.7-2.3-10c-1.1-4.4-2.5-5.3-7.9-5.3
	c0,5,0,10,0,15.3c-1.6,0.1-2.6,0.2-4.3,0.3c-0.6-11.8-0.1-23.4-0.3-35.1c4.4-1.8,8.6-1.6,12.6-0.1c6,2.2,7.5,10.5,3,15.2
	C1239.1,287.7,1237.9,288.4,1236.6,289.4z M1229,287.6c6.6,0.1,9.2-2.4,8.9-7.9c-0.3-4.7-2.8-6.3-8.9-5.4
	C1229,278.6,1229,282.9,1229,287.6z"/>
<path d="M912.7,291.3c0,5.2,0,10.1,0,15.2c-1.5,0-2.6,0-3.9,0c0-11.7,0-23.3,0-35.2c3.3-1,6.7-1.1,10.1-0.5c3.7,0.7,6.5,2.6,7.4,6.3
	c0.9,3.9,0.3,7.5-2.9,10.3c-0.7,0.6-1.6,1.1-2.6,1.8c6,4.3,4.7,11.1,7,17.2c-1.8,0-3,0-4.6,0c-0.7-3.3-1.2-6.5-2-9.7
	C919.9,292.2,918.2,291,912.7,291.3z M913.1,287.6c6.4,0.2,9.6-2.7,9.1-7.9c-0.4-4.6-3.1-6.3-9.1-5.4
	C913.1,278.6,913.1,282.9,913.1,287.6z"/>
<path d="M847.5,306.4c-1.5,0.1-2.6,0.2-4,0.3c-1-3.6-2-7-3-10.6c-2.9,0-5.6,0-8.7,0c-0.9,3.4-1.9,6.8-2.8,10.4c-1.2,0-2.3,0-4,0
	c3-12,5.9-23.8,8.9-35.7c1.7,0,3.1,0,5,0C841.6,282.6,844.5,294.3,847.5,306.4z M836.5,276.9c-0.3,0-0.5,0.1-0.8,0.1
	c-1.1,5.1-2.2,10.2-3.3,15.5c2.8,0,5,0,7.5,0C838.7,286.9,837.6,281.9,836.5,276.9z"/>
<path d="M755.5,292.4c0,4.5,0,9,0,13.8c-1.4,0.2-2.5,0.4-4.3,0.6c-0.2-12-0.1-23.7-0.1-35.2c9.4-2.7,16.5-0.1,17.9,6.4
	C770.7,286,766.4,290.6,755.5,292.4z M755.7,288.5c6.6,0.1,9.7-2.9,9.3-8.3c-0.4-4.9-3.2-6.7-9.3-5.9
	C755.7,278.9,755.7,283.5,755.7,288.5z"/>
<path d="M1161.2,289.7c-3,0-5.7,0-8.8,0c0,4.5,0,8.7,0,13.4c3,0.1,5.9,0.1,8.8,0.3c1.7,0.1,1.7,0.2,2.1,3.1c-5,0-10,0-15.3,0
	c0-11.9,0-23.6,0-35.8c4.4,0,8.4-0.1,12.5,0c1.6,0,1.6,0.2,1.9,3.4c-3.3,0-6.5,0-10.1,0c0,4.1,0,7.8,0,12.1c2.6,0,5,0,7.4,0
	C1161.8,286.2,1162.2,287.3,1161.2,289.7z"/>
<path d="M1318.8,271.7c-0.4,1.1-0.7,1.8-1,2.6c-1.6-0.2-3-0.4-4.5-0.4c-2.5-0.1-4.5,0.8-5.5,3.3c-1,2.4-0.4,4.6,1.4,6.3
	c1.7,1.6,3.7,2.8,5.5,4.2c2.5,2,4.7,4.2,5.2,7.5c1.2,6.9-4,12.4-11.4,12c-1.5-0.1-3-0.4-4.3-0.8c-1.7-0.6-1.6-1.9-0.5-3.5
	c1.3,0.2,2.6,0.6,4,0.7c3.5,0.4,6.3-0.9,7.5-3.5c1.2-2.7,0.7-5.6-1.9-8c-1.5-1.5-3.4-2.6-5-4c-4.9-4-6.3-8-4.3-12.3
	c2.1-4.5,7.3-6.4,13.1-4.9C1317.4,271,1317.8,271.2,1318.8,271.7z"/>
<path d="M992.5,274.3c-2.9-0.1-4.8-0.2-7-0.3c-0.4-1.7-0.7-3.2,1.5-3.3c5.1-0.1,10.2-0.1,15.3,0c1.8,0.1,1.9,1.4,1.3,3.1
	c-2,0.2-4.1,0.3-6.7,0.5c0,10.6,0,21.2,0,32.1c-1.6,0-2.7,0-4.4,0C992.5,295.8,992.5,285.2,992.5,274.3z"/>
<g>
	<path d="M783.1,234.4c-5.7,0-11.1,0-17.1,0c1.2-13.9,2.5-27.6,3.7-41.6c-11.5,0-22.5,0-33.9,0c-8.1,13.8-16.3,27.8-24.4,41.6
		c-5.6,0-10.8,0-16.6,0c0.6-1.3,0.9-2.4,1.4-3.3c26.3-44.7,52.7-89.4,78.9-134.2c1.3-2.2,2.6-3.3,5.3-3.1c5.1,0.2,10.2,0.1,15.2,0.1
		C796.9,98.1,784.2,227.8,783.1,234.4z M779.9,113.4c-9,13.7-35.4,63-35.8,66c9.3,0,18.5,0,27.7,0
		C774.5,156.9,777.2,135.2,779.9,113.4z"/>
	<path d="M1108.3,177.2c-6.6,19.5-13.1,38.4-19.4,57.2c-6,0-11.6,0-17.8,0c15.6-46.3,31.1-92.2,46.7-138.2
		c13.9-2.8,27.7-3.9,41.6-1.2c2.8,0.5,5.6,1.6,8.1,2.9c7.2,3.6,11.3,9.5,11.7,17.5c0.2,4.1-0.1,8.4-1.1,12.4
		c-6.4,27.8-30.8,48-59.4,49.4C1115.5,177.3,1112.1,177.2,1108.3,177.2z M1113,163.2c1.6,0.4,2.5,0.7,3.4,0.8
		c23.1,1.9,44.9-18.8,44.4-42c-0.2-7.9-4.3-13.2-12.1-14.4c-4.7-0.7-9.6-0.2-14.3-0.2c-1.9,0-2.9,0.9-3.4,2.7c-1.2,4-2.7,7.9-4,11.8
		C1122.3,135.5,1117.7,149.1,1113,163.2z"/>
	<path d="M1232.1,220.3c-1.8,5.3-3.2,9.6-4.8,14.1c-20.4,0-40.6,0-60.8,0c0-3.5,42.6-130.9,46.9-140.2c19.2,0,38.6,0,58.6,0
		c-1.6,4.7-3.1,9.3-4.7,14c-13.7,0-27.2,0-41.2,0c-5.1,15.1-10.2,30.1-15.4,45.4c4.5,1.5,8.6,0.6,12.7,0.7c4.2,0.2,8.4,0,12.5,0
		c4.2,0,8.3,0,13.2,0c-1.6,4.8-3,9-4.6,13.6c-12.9,0-25.7,0-38.6,0c-5.9,17.5-11.7,34.7-17.7,52.4
		C1202.9,220.3,1217,220.3,1232.1,220.3z"/>
	<path d="M978.8,230.1c3.1-5,5.8-9.3,8.6-13.8c1.3,0.6,2.4,1.2,3.6,1.6c14.5,5.7,28.3,5.3,40.7-5.2c5.4-4.6,8.9-10.6,10.6-17.4
		c1.6-6.6,0.7-12.9-3.7-18.2c-3.1-3.7-6.7-6.9-10-10.4c-3.5-3.8-7.2-7.4-10.1-11.6c-5.4-7.9-6.5-16.7-3.1-25.8
		c7.5-19.7,22.1-31.1,42.4-35.4c7.9-1.7,16-1.7,23.8,0.8c2.2,0.7,4.4,1.8,7.1,3c-3.2,4.9-6.1,9.3-9,13.8c-1.3-0.6-2.3-1-3.2-1.4
		c-19.3-8.9-41.2,3.1-44,22.7c-0.7,5.2,0.6,9.7,4,13.4c3.1,3.4,6.7,6.5,10.1,9.7c2,1.9,4.1,3.6,6,5.6c9.1,9.6,11.9,20.8,7.8,33.4
		c-7.2,22-22.9,34.7-45.1,39.8c-9.2,2.1-18.5,1.7-27.7-0.9C984.6,232.8,982,231.4,978.8,230.1z"/>
	<path d="M1366,96c-3.3,5.1-6,9.4-8.5,13.5c-3.9-0.8-7.3-1.8-10.8-2.1c-9.7-1-18.4,2.1-26.3,7.6c-7.6,5.3-13.8,12.1-18.7,19.9
		c-11.4,18.3-18.9,37.9-20.3,59.6c-0.2,4.1,0.3,8.4,1.4,12.4c2.4,8.9,9.1,14,18.3,14.5c5.6,0.3,11.2,0,16.7-1.6
		c1-0.3,2.1-0.4,3.7-0.8c-0.5,4.2-0.8,8-1.6,11.7c-0.2,0.9-1.6,2-2.6,2.3c-12.1,3.6-24.4,4.5-36.5,0.4
		c-10.5-3.6-16.2-11.7-18.3-22.4c-1.8-9-1-17.9,0.9-26.8c4.7-22,13-42.4,27-60.1c10.6-13.4,23.7-23.5,40.3-28.6
		c9.1-2.8,18.3-3.4,27.6-1.7C1360.7,94.2,1362.9,95.1,1366,96z"/>
	<path d="M807.2,234.4c15.9-47.1,31.6-93.6,47.4-140.3c5.8,0,11.3,0,17.7,0c-6.9,21.3-14.1,42.1-21.2,63c-7,21-14.1,41.9-21.5,63.7
		c7.7,0.1,14.7,0,21.7,0.1c7,0,14,0,21.7,0c-1.7,5-3.1,9.2-4.5,13.5C848.2,234.4,828.1,234.4,807.2,234.4z"/>
	<path d="M940.4,94.1c6,0,11.5,0,17.7,0c-6.9,21.4-14.2,42.2-21.2,63.1c-7,21-14.1,41.9-21.5,63.7c14.7,0.2,28.7,0,43.4,0.1
		c-1.6,4.7-3,8.9-4.5,13.4c-20.3,0-40.5,0-61.3,0C908.8,187.5,924.5,140.9,940.4,94.1z"/>
</g>
</svg>
