<?xml version="1.0" encoding="utf-8"?>
<!-- Generator: Adobe Illustrator 21.1.0, SVG Export Plug-In . SVG Version: 6.00 Build 0)  -->
<svg version="1.1" id="Layer_1" xmlns="http://www.w3.org/2000/svg" xmlns:xlink="http://www.w3.org/1999/xlink" x="0px" y="0px"
	 viewBox="0 0 976 284" style="enable-background:new 0 0 976 284;" xml:space="preserve">
<style type="text/css">
	.st0{fill:#FF0000;}
	.st1{fill:#989898;}
	.st2{fill:#E2E2E2;}
</style>
<g>
	<polygon class="st0" points="11,23.5 215.1,23.5 178.4,77.7 113.5,77.5 137.1,117.7 66.7,117.3 	"/>
	<polygon class="st1" points="69.8,130.7 144.9,130.7 105.9,188.7 	"/>
</g>
<path class="st2" d="M76.4,216.3c1.2-6.8,1.4-1.8,12.7-1.7c1.2,16.2-6,29.9-13,44.5c4.5,6.3,9.1,12.7,13.9,19.4
	c-11,5.3-17.3,0.1-22.5-8.5c-13.1,7.5-25.5,16.6-40.7,10.8c-6.7-2.5-13.9-6.7-18.3-12.1c-12.6-15.6-7.9-35.2,13-58.7
	c-2.1-4.9-4.7-10.1-6.4-15.4c-3.8-11.6-3.3-22.9,4.9-32.8c8.2-9.9,22.4-12.5,33-6.4c10.4,6,16.1,20,10.4,31.7
	c-4.6,9.5-12.5,17.5-20.7,28.4c7.4,10.1,15.6,21.2,24.3,33c7.4-8.9,7.9-18.1,9.4-27.1 M59.6,259.8C49,246.1,39.1,233.4,29,220.3
	c-14.3,16.8-15.9,34.2-5.6,44.6C32.4,274,45.1,272.7,59.6,259.8z M35.7,202.8c10.7-6.1,16.7-14.6,15.9-26.8
	c-0.5-6.7-3.4-12.6-11.1-13.3c-7.8-0.7-11.5,4.8-12.7,11.5C25.9,184.7,27.1,194.7,35.7,202.8z"/>
<g>
	<path class="st1" d="M575,272.2c0-13.6,0-25.7,0-38.3c1.5-0.1,2.9-0.1,4.6-0.2c0,16.3,0,32,0,48c-3.7,1.9-5.6,0.3-7-3.2
		c-4-9.7-8.2-19.3-12.3-28.9c-0.6-1.4-1.2-2.7-2.5-4c0,12,0,24,0,36.4c-1.7,0-3.1,0-4.9,0c0-16,0-31.8,0-47.6c4.9-1.3,5-1.3,6.9,2.9
		c4.1,9.4,8.1,18.9,12.1,28.3C572.7,267.4,573.6,269.1,575,272.2z"/>
	<path class="st1" d="M786.5,258.9c8.1,6,6.2,15.3,9.4,23.2c-2.2,0-3.9,0-6.1,0c-1-4.6-1.9-9.1-3.1-13.6c-1.5-5.9-3.4-7.1-10.8-7.2
		c0,6.8,0,13.6,0,20.7c-2.1,0.2-3.6,0.3-5.8,0.4c-0.8-16.1-0.2-31.8-0.4-47.7c5.9-2.4,11.7-2.2,17.2-0.2c8.1,3,10.2,14.2,4.1,20.7
		C789.8,256.5,788.2,257.5,786.5,258.9z M776.1,256.5c8.9,0.1,12.5-3.3,12.1-10.8c-0.4-6.4-3.8-8.6-12.1-7.4
		C776.1,244.2,776.1,250.1,776.1,256.5z"/>
	<path class="st1" d="M346.5,261.4c0,7.1,0,13.7,0,20.6c-2,0-3.5,0-5.3,0c0-15.9,0-31.6,0-47.8c4.5-1.4,9.1-1.5,13.7-0.6
		c5.1,0.9,8.8,3.5,10,8.6c1.3,5.3,0.5,10.3-4,14c-1,0.9-2.2,1.5-3.5,2.4c8.1,5.8,6.3,15.1,9.5,23.3c-2.5,0-4.1,0-6.3,0
		c-0.9-4.5-1.7-8.9-2.7-13.2C356.3,262.7,354,261.1,346.5,261.4z M347,256.4c8.7,0.2,13-3.7,12.4-10.7c-0.5-6.3-4.2-8.6-12.4-7.4
		C347,244.2,347,250.1,347,256.4z"/>
	<path class="st1" d="M257.9,282c-2.1,0.1-3.5,0.2-5.5,0.4c-1.4-4.8-2.7-9.5-4-14.4c-3.9,0-7.6,0-11.9,0c-1.3,4.6-2.5,9.3-3.9,14.2
		c-1.6,0-3.1,0-5.4,0c4.1-16.4,8-32.3,12.1-48.5c2.3,0,4.2,0,6.8,0C250,249.7,253.9,265.6,257.9,282z M243,241.9
		c-0.4,0-0.7,0.1-1.1,0.1c-1.5,6.9-2.9,13.9-4.4,21c3.8,0,6.7,0,10.2,0C246,255.5,244.5,248.7,243,241.9z"/>
	<path class="st1" d="M132.9,263c0,6,0,12.2,0,18.8c-1.9,0.3-3.4,0.5-5.8,0.8c-0.3-16.3-0.1-32.2-0.1-47.9
		c12.8-3.7,22.4-0.1,24.3,8.8C153.6,254.3,147.8,260.5,132.9,263z M133.2,257.7c8.9,0.1,13.2-4,12.6-11.3c-0.5-6.6-4.3-9.2-12.6-8.1
		C133.2,244.6,133.2,250.9,133.2,257.7z"/>
	<path class="st1" d="M684,259.2c-4,0-7.8,0-12,0c0,6.1,0,11.8,0,18.2c4,0.1,8,0.2,11.9,0.4c2.3,0.1,2.3,0.3,2.9,4.2
		c-6.8,0-13.6,0-20.7,0c0-16.2,0-32.1,0-48.7c5.9,0,11.4-0.1,17,0c2.2,0.1,2.2,0.3,2.6,4.6c-4.4,0-8.8,0-13.7,0c0,5.6,0,10.6,0,16.5
		c3.5,0,6.8-0.1,10,0C684.8,254.6,685.4,256,684,259.2z"/>
	<path class="st1" d="M898.1,234.8c-0.6,1.5-1,2.4-1.4,3.6c-2.1-0.2-4.1-0.6-6.1-0.6c-3.4-0.1-6.1,1.1-7.4,4.5
		c-1.3,3.3-0.6,6.3,1.9,8.6c2.3,2.1,5,3.8,7.4,5.7c3.4,2.7,6.3,5.6,7.1,10.2c1.6,9.3-5.4,16.8-15.5,16.3c-2-0.1-4-0.5-5.9-1.2
		c-2.3-0.8-2.1-2.5-0.7-4.7c1.7,0.3,3.6,0.8,5.5,1c4.8,0.6,8.5-1.2,10.1-4.7c1.7-3.7,0.9-7.5-2.6-10.9c-2.1-2-4.6-3.6-6.8-5.4
		c-6.7-5.4-8.6-10.9-5.8-16.8c2.9-6.1,10-8.7,17.8-6.6C896.2,233.9,896.8,234.2,898.1,234.8z"/>
	<path class="st1" d="M454.9,238.3c-3.9-0.2-6.5-0.3-9.5-0.5c-0.6-2.3-0.9-4.4,2.1-4.5c6.9-0.2,13.8-0.2,20.8,0
		c2.5,0.1,2.5,2,1.7,4.3c-2.7,0.2-5.6,0.4-9.2,0.7c0,14.4,0,28.8,0,43.6c-2.2,0-3.7,0-5.9,0C454.9,267.7,454.9,253.3,454.9,238.3z"
		/>
</g>
<path d="M126.9,196.4C127.7,194.8,243,27,246.7,27.2 M242.4,27.2c0,0,18.7,0.1,25.7,0.1c1.7,5.1-16.2,161.2-17.7,169.1
	c-8,0-15.6,0-23.9,0c1.7-16.8,3.5-33.2,5.2-50.1c-16.1,0-31.5,0-47.5,0c-11.3,16.6-34.1,50.1-34.1,50.1h-23.2 M245.9,50.7
	c-12.6,16.5-49.6,75.9-50.1,79.4c13,0,25.9,0,38.7,0C238.4,103.1,242.1,76.9,245.9,50.7z"/>
<path d="M631,127.4c-9.3,23.5-18.3,46.3-27.2,68.9c-8.5,0-16.2,0-24.9,0c21.9-55.7,43.6-110.9,65.4-166.4
	c19.5-3.4,38.8-4.7,58.3-1.5c3.9,0.7,7.8,2,11.4,3.5c10.1,4.3,15.8,11.5,16.4,21.1c0.3,4.9-0.2,10.1-1.5,14.9
	c-9,33.5-43,57.7-83.1,59.4C641,127.6,636.3,127.4,631,127.4z M637.5,110.6c2.2,0.4,3.5,0.8,4.8,0.9c32.4,2.3,62.9-22.6,62.1-50.6
	c-0.2-9.5-6-15.9-16.9-17.3c-6.6-0.8-13.4-0.2-20.1-0.3c-2.6,0-4,1.1-4.8,3.3c-1.7,4.8-3.7,9.5-5.6,14.3
	C650.6,77.3,644.1,93.7,637.5,110.6z"/>
<path d="M785.4,179.3c-2.5,6.3-4.5,11.6-6.7,17c-28.6,0-56.9,0-85.1,0c0.1-4.2,59.6-157.6,65.6-168.8c26.9,0,54,0,82,0
	c-2.2,5.7-4.3,11.1-6.6,16.8c-19.2,0-38,0-57.6,0c-7.2,18.2-14.2,36.2-21.5,54.6c6.2,1.8,12.1,0.7,17.8,0.9c5.8,0.2,11.7,0,17.5,0
	c5.8,0,11.6,0,18.4,0c-2.3,5.8-4.3,10.9-6.4,16.4c-18,0-35.9,0-54,0c-8.3,21.1-16.4,41.7-24.7,63
	C744.6,179.3,764.3,179.3,785.4,179.3z"/>
<path d="M467.9,191.1c4.3-6,8.1-11.2,12.1-16.7c1.9,0.7,3.4,1.4,5,1.9c20.3,6.9,39.6,6.4,56.9-6.3c7.6-5.5,12.5-12.7,14.8-21
	c2.2-7.9,1-15.5-5.2-21.9c-4.3-4.4-9.4-8.3-14-12.5c-4.9-4.5-10.1-8.9-14.1-13.9c-7.6-9.5-9.1-20.1-4.3-31
	c10.5-23.7,30.9-37.4,59.3-42.6c11.1-2,22.4-2,33.3,1c3.1,0.9,6.1,2.2,10,3.6c-4.5,5.9-8.5,11.2-12.6,16.7c-1.8-0.7-3.2-1.2-4.5-1.7
	C577.6,36,546.9,50.5,543,74c-1,6.2,0.8,11.6,5.5,16.1c4.4,4.1,9.4,7.8,14.1,11.6c2.8,2.3,5.7,4.4,8.4,6.7
	c12.8,11.5,16.6,25.1,10.9,40.2c-10.1,26.5-32,41.8-63,47.9c-12.9,2.5-26,2.1-38.7-1.1C476.2,194.4,472.4,192.7,467.9,191.1z"/>
<path d="M961,29.7c-4.5,6.2-8.3,11.3-11.9,16.2c-5.5-1-10.3-2.1-15.1-2.6c-13.6-1.2-25.7,2.5-36.7,9.1c-10.7,6.4-19.3,14.5-26.1,24
	c-16,22-26.5,45.6-28.4,71.7c-0.3,4.9,0.4,10.1,1.9,14.9c3.3,10.7,12.8,16.8,25.6,17.4c7.9,0.4,15.7,0,23.4-2c1.4-0.4,3-0.5,5.2-0.9
	c-0.7,5-1.2,9.6-2.2,14.1c-0.3,1.1-2.2,2.4-3.6,2.8c-17,4.4-34.1,5.4-51.1,0.4c-14.7-4.3-22.6-14-25.7-26.9
	c-2.6-10.8-1.4-21.6,1.3-32.3c6.6-26.4,18.1-51,37.8-72.3c14.9-16.1,33.1-28.3,56.3-34.4c12.7-3.3,25.6-4.1,38.6-2
	C953.5,27.6,956.7,28.6,961,29.7z"/>
<path d="M263.3,196.4c22.3-56.7,44.3-112.7,66.4-168.9c8,0,15.9,0,24.7,0c-9.6,25.6-19.8,50.7-29.6,75.8
	c-9.8,25.2-19.8,50.5-30.1,76.7c10.8,0.2,20.6,0.1,30.4,0.1c9.8,0,19.6,0,30.3,0c-2.3,6-4.3,11-6.3,16.2
	C320.7,196.4,292.6,196.4,263.3,196.4z"/>
<path d="M431,27.4c8.4,0,16,0,24.7,0c-9.7,25.7-19.8,50.8-29.7,76c-9.9,25.2-19.8,50.4-30.1,76.7c20.6,0.2,40.2,0,60.7,0.2
	c-2.2,5.7-4.2,10.8-6.3,16.1c-28.4,0-56.6,0-85.8,0C386.8,139.9,408.8,83.8,431,27.4z"/>
</svg>
